<svg width="32" height="32" viewBox="0 0 32 32" fill="none" xmlns="http://www.w3.org/2000/svg"
    className="flex-shrink-0">
    <rect width="32" height="32" rx="8" fill="#FF6B6B" />
    <path
        d="M10.5 9H14.5C15.0304 9 15.5391 9.21071 15.9142 9.58579C16.2893 9.96086 16.5 10.4696 16.5 11V21C16.5 20.4696 16.2893 19.9609 15.9142 19.5858C15.5391 19.2107 15.0304 19 14.5 19H10.5V9Z"
        fill="white" />
    <path
        d="M21.5 9H17.5C16.9696 9 16.4609 9.21071 16.0858 9.58579C15.7107 9.96086 15.5 10.4696 15.5 11V21C15.5 20.4696 15.7107 19.9609 16.0858 19.5858C16.4609 19.2107 16.9696 19 17.5 19H21.5V9Z"
        fill="white" />
    <path d="M9 14H23" stroke="white" strokeWidth="2" strokeLinecap="round" strokeLinejoin="round" />
</svg>